<?xml version="1.0" encoding="UTF-8"?>
<!DOCTYPE svg PUBLIC "-//W3C//DTD SVG 1.1//EN" "http://www.w3.org/Graphics/SVG/1.1/DTD/svg11.dtd">
<!-- Creator: CorelDRAW 2021 (64-Bit) -->
<svg xmlns="http://www.w3.org/2000/svg" xml:space="preserve" width="83.3026mm" height="111mm" version="1.1" style="shape-rendering:geometricPrecision; text-rendering:geometricPrecision; image-rendering:optimizeQuality; fill-rule:evenodd; clip-rule:evenodd"
viewBox="0 0 3768.34 5021.27"
 xmlns:xlink="http://www.w3.org/1999/xlink"
 xmlns:xodm="http://www.corel.com/coreldraw/odm/2003">
 <defs>
  <style type="text/css">
   <![CDATA[
    .fil1 {fill:#FEFEFE}
    .fil0 {fill:#00CBF1}
   ]]>
  </style>
 </defs>
 <g id="Layer_x0020_1">
  <metadata id="CorelCorpID_0Corel-Layer"/>
  <path class="fil0" d="M1045.97 753c54.71,-22.09 657.11,-6.63 750.45,4.8 187.81,23 425.83,95.55 537.92,236.6 271.36,341.45 212.52,863.48 -89.62,1108.46 -271.25,219.94 -620.56,197.85 -965.4,197.85 -115.2,0 -273.74,30.69 -296.51,-80.36 -10.26,-50.02 -2.7,-1011.43 -2.7,-1151.37 0,-172.26 -27.99,-278.1 65.86,-315.98zm37.21 3438.73l0 -242.41c-132.7,-21.39 -145.43,-174.19 0,-198.91l0 -242.41c-123.45,-19.87 -103.09,-113.65 -103.07,-232.4 0.08,-449.92 -44.21,-441.34 230.56,-441.28 107.02,0.02 217.92,-5.32 322.34,11.59 390.15,63.19 533.11,343.71 686.15,666.44 102.84,216.85 290.89,711.55 391.81,961.93 33.04,81.98 66.31,163.47 98.59,244.55 22.11,55.53 22.18,69.19 82.15,84.57 135.76,34.83 670.82,32.13 775.97,-14.22 12.96,-103.34 -191.87,-542.72 -237.96,-651.3 -99.84,-235.23 -297.69,-724.62 -420.03,-933.37 -119.98,-204.71 -243.72,-331.71 -455.07,-447.35 -45.28,-24.77 -89.84,-75.83 -52.29,-142.92 62.25,-111.21 869.58,-173.67 915.74,-1113.5 29.53,-601.22 -240.16,-960.52 -653.28,-1140.65 -482.44,-210.36 -1080.9,-164 -1640.46,-164 -150.38,0 -300.75,0 -451.13,0 -453.12,0 -369.68,-25.24 -369.68,980.76l0 2706.78c0,287.28 -12.81,604.98 1.15,888.48 132.6,93.61 623.17,49.53 772.72,4.81 10.13,-105.8 2.75,-244.53 2.72,-353.9 -0.03,-124.46 -25.35,-209.47 103.07,-231.3z"/>
  <path class="fil1" d="M1083.18 4191.73c-128.42,21.83 -103.09,106.85 -103.07,231.3 0.02,109.36 7.41,248.1 -2.72,353.9 -149.55,44.72 -640.12,88.8 -772.72,-4.81 -13.96,-283.5 -1.15,-601.2 -1.15,-888.48l0 -2706.78c0,-1006 -83.43,-980.76 369.68,-980.76 150.38,0 300.75,0 451.13,0 559.56,0 1158.01,-46.36 1640.46,164 413.12,180.13 682.81,539.43 653.28,1140.65 -46.16,939.83 -853.49,1002.3 -915.74,1113.5 -37.55,67.08 7.01,118.14 52.29,142.92 211.35,115.64 335.09,242.63 455.07,447.35 122.34,208.74 320.19,698.14 420.03,933.37 46.08,108.58 250.92,547.96 237.96,651.3 -105.14,46.35 -640.2,49.05 -775.97,14.22 -59.97,-15.38 -60.04,-29.04 -82.15,-84.57 -32.28,-81.09 -65.56,-162.57 -98.59,-244.55 -100.91,-250.38 -288.97,-745.08 -391.81,-961.93 -153.04,-322.72 -296,-603.25 -686.15,-666.44 -104.42,-16.91 -215.32,-11.57 -322.34,-11.59 -274.77,-0.06 -230.48,-8.64 -230.56,441.28 -0.02,118.75 -20.38,212.53 103.07,232.4 93.17,-8.2 98.56,-76.47 98.1,-183.34 -0.42,-98.05 -0.03,-196.19 -0.03,-294.24 307.94,0 534.33,-2.24 709.36,281.16 126.21,204.34 220.11,448.78 314.78,685.55 96.19,240.57 188.6,466.56 284.41,706.12 55.26,138.17 73.5,231.04 218.39,281.77 75.9,26.57 167.38,34.32 264.49,36.26l199.42 0 125.71 0c293.12,-1.88 543.31,-30.51 451.07,-370.83 -52.36,-193.18 -341.79,-827.52 -438.07,-1062.43 -13.55,-33.07 -22.75,-48.13 -36.57,-81.12 -14.73,-35.18 -21.01,-57.15 -36.78,-90.71 -308.86,-657.36 -447.95,-636.47 -516.49,-738.82 119.6,-27.87 342.47,-198.75 448.87,-306.28 23.99,-24.24 31.39,-38.75 53.83,-63.86 318.14,-356.19 360.44,-965.46 216.97,-1398.9 -71.85,-217.06 -140.9,-278.47 -244.78,-412.3 -145.41,-187.35 -468.64,-347.24 -700.35,-407.86 -122.57,-32.07 -226.42,-57.16 -371.93,-69.39 -112.38,-9.45 -248.87,-15.29 -397.98,-18.76l-1364.77 0c-119.97,5.22 -232.81,69.89 -282.3,142.8 -75.17,110.74 -74.15,191.01 -74.15,367.17l0 3971.91c0,133.46 -23.28,324.01 37.36,403.96 67.82,89.42 173.16,113.16 314.78,126.54 37.76,3.57 78.71,6.65 121.43,8.89l267.19 0c158.94,-9.85 305.26,-40.61 375.16,-109.97 83.32,-82.68 60.94,-221.59 60.94,-380.39 0,-145.29 33.76,-334.65 -98.07,-339.18z"/>
  <path class="fil1" d="M1652 2098.74l-470.74 0 0 -1157.25c488.57,0 1127.83,-71.81 1127.83,568.82 0,179.09 -58.46,321.66 -183.87,433.99 -107.29,96.11 -320.81,154.44 -473.22,154.44zm-606.02 -1345.74c-93.84,37.88 -65.86,143.72 -65.86,315.98 0,139.95 -7.56,1101.35 2.7,1151.37 22.77,111.04 181.31,80.36 296.51,80.36 344.84,0 694.15,22.08 965.4,-197.85 302.14,-244.98 360.99,-767.01 89.62,-1108.46 -112.1,-141.05 -350.12,-213.59 -537.92,-236.6 -93.34,-11.43 -695.74,-26.89 -750.45,-4.8z"/>
  <path class="fil1" d="M1083.18 3949.32c127.5,-11.23 125.34,-194.59 0,-198.91 -145.43,24.73 -132.7,177.53 0,198.91z"/>
 </g>
</svg>
