<?xml version="1.0" encoding="UTF-8"?>
<!DOCTYPE svg PUBLIC "-//W3C//DTD SVG 1.1//EN" "http://www.w3.org/Graphics/SVG/1.1/DTD/svg11.dtd">
<svg xmlns="http://www.w3.org/2000/svg" version="1.1" width="346px" height="186px" style="shape-rendering:geometricPrecision; text-rendering:geometricPrecision; image-rendering:optimizeQuality; fill-rule:evenodd; clip-rule:evenodd" xmlns:xlink="http://www.w3.org/1999/xlink">
<g><path style="opacity:0.872" fill="#2b2a28" d="M 3.5,-0.5 C 7.16667,-0.5 10.8333,-0.5 14.5,-0.5C 16.7568,4.26596 17.0902,9.26596 15.5,14.5C 20.621,26.9627 16.621,32.296 3.5,30.5C 3.5,20.1667 3.5,9.83333 3.5,-0.5 Z M 8.5,3.5 C 9.4959,3.41423 10.3292,3.74756 11,4.5C 11.4966,6.80982 11.6633,9.14316 11.5,11.5C 10.5,11.5 9.5,11.5 8.5,11.5C 8.5,8.83333 8.5,6.16667 8.5,3.5 Z M 8.5,16.5 C 9.5,16.5 10.5,16.5 11.5,16.5C 11.5,19.5 11.5,22.5 11.5,25.5C 10.5,25.5 9.5,25.5 8.5,25.5C 8.5,22.5 8.5,19.5 8.5,16.5 Z"/></g>
<g><path style="opacity:0.839" fill="#2b2928" d="M 19.5,-0.5 C 23.1667,-0.5 26.8333,-0.5 30.5,-0.5C 30.5,0.833333 30.5,2.16667 30.5,3.5C 28.5,3.5 26.5,3.5 24.5,3.5C 24.5,6.16667 24.5,8.83333 24.5,11.5C 26.1667,11.5 27.8333,11.5 29.5,11.5C 29.5,13.1667 29.5,14.8333 29.5,16.5C 27.8333,16.5 26.1667,16.5 24.5,16.5C 24.5,19.5 24.5,22.5 24.5,25.5C 26.5,25.5 28.5,25.5 30.5,25.5C 30.5,27.1667 30.5,28.8333 30.5,30.5C 26.8333,30.5 23.1667,30.5 19.5,30.5C 19.5,20.1667 19.5,9.83333 19.5,-0.5 Z"/></g>
<g><path style="opacity:0.878" fill="#2b2928" d="M 33.5,-0.5 C 36.8333,-0.5 40.1667,-0.5 43.5,-0.5C 45.1264,2.24571 45.7931,5.24571 45.5,8.5C 43.8333,8.5 42.1667,8.5 40.5,8.5C 40.8841,6.33515 40.2174,4.66848 38.5,3.5C 37.1667,6.16667 37.1667,8.83333 38.5,11.5C 40.9176,12.4572 43.0843,13.7905 45,15.5C 45.7722,19.8897 45.6055,24.223 44.5,28.5C 40.6327,31.1327 36.7993,31.1327 33,28.5C 32.5045,26.5273 32.3379,24.5273 32.5,22.5C 34.1667,22.5 35.8333,22.5 37.5,22.5C 37.5,23.5 37.5,24.5 37.5,25.5C 38.5,25.5 39.5,25.5 40.5,25.5C 40.6633,23.1432 40.4966,20.8098 40,18.5C 37.6667,17.1667 35.3333,15.8333 33,14.5C 32.2223,9.41575 32.3889,4.41575 33.5,-0.5 Z"/></g>
<g><path style="opacity:0.934" fill="#2b2a28" d="M 46.5,-0.5 C 50.8333,-0.5 55.1667,-0.5 59.5,-0.5C 59.5,0.833333 59.5,2.16667 59.5,3.5C 58.1667,3.5 56.8333,3.5 55.5,3.5C 55.5,12.5 55.5,21.5 55.5,30.5C 53.8333,30.5 52.1667,30.5 50.5,30.5C 50.5,21.5 50.5,12.5 50.5,3.5C 49.1667,3.5 47.8333,3.5 46.5,3.5C 46.5,2.16667 46.5,0.833333 46.5,-0.5 Z"/></g>
<g><path style="opacity:0.858" fill="#2b2928" d="M 67.5,-0.5 C 71.1667,-0.5 74.8333,-0.5 78.5,-0.5C 78.7828,0.28913 79.2828,0.955796 80,1.5C 80.6667,6.83333 80.6667,12.1667 80,17.5C 77.7724,19.1134 75.2724,19.78 72.5,19.5C 72.5,23.1667 72.5,26.8333 72.5,30.5C 70.8333,30.5 69.1667,30.5 67.5,30.5C 67.5,20.1667 67.5,9.83333 67.5,-0.5 Z M 72.5,3.5 C 73.4959,3.41423 74.3292,3.74756 75,4.5C 75.4983,7.81677 75.665,11.1501 75.5,14.5C 74.5,14.5 73.5,14.5 72.5,14.5C 72.5,10.8333 72.5,7.16667 72.5,3.5 Z"/></g>
<g><path style="opacity:0.815" fill="#2b2a29" d="M 84.5,-0.5 C 87.8333,-0.5 91.1667,-0.5 94.5,-0.5C 94.7828,0.28913 95.2828,0.955796 96,1.5C 96.4998,11.1609 96.6665,20.8276 96.5,30.5C 94.8333,30.5 93.1667,30.5 91.5,30.5C 91.5,26.8333 91.5,23.1667 91.5,19.5C 90.1667,19.5 88.8333,19.5 87.5,19.5C 87.5,23.1667 87.5,26.8333 87.5,30.5C 85.8333,30.5 84.1667,30.5 82.5,30.5C 82.3335,20.8276 82.5002,11.1609 83,1.5C 83.7172,0.955796 84.2172,0.28913 84.5,-0.5 Z M 88.5,3.5 C 89.4959,3.41423 90.3292,3.74756 91,4.5C 91.4983,7.81677 91.665,11.1501 91.5,14.5C 90.1667,14.5 88.8333,14.5 87.5,14.5C 87.244,10.7307 87.5773,7.06405 88.5,3.5 Z"/></g>
<g><path style="opacity:0.845" fill="#2a2928" d="M 99.5,-0.5 C 103.5,-0.5 107.5,-0.5 111.5,-0.5C 113.087,6.11454 112.753,12.6145 110.5,19C 111.504,22.7006 112.504,26.3672 113.5,30C 111.559,30.7429 109.726,30.5762 108,29.5C 105.105,14.8799 103.938,15.2132 104.5,30.5C 102.833,30.5 101.167,30.5 99.5,30.5C 99.5,20.1667 99.5,9.83333 99.5,-0.5 Z M 104.5,3.5 C 105.496,3.41423 106.329,3.74756 107,4.5C 107.498,7.48162 107.665,10.4816 107.5,13.5C 106.5,13.5 105.5,13.5 104.5,13.5C 104.5,10.1667 104.5,6.83333 104.5,3.5 Z"/></g>
<g><path style="opacity:0.825" fill="#2b2a28" d="M 113.5,-0.5 C 117.833,-0.5 122.167,-0.5 126.5,-0.5C 126.5,0.833333 126.5,2.16667 126.5,3.5C 125.167,3.5 123.833,3.5 122.5,3.5C 122.5,12.5 122.5,21.5 122.5,30.5C 120.833,30.5 119.167,30.5 117.5,30.5C 117.5,21.5 117.5,12.5 117.5,3.5C 116.167,3.5 114.833,3.5 113.5,3.5C 113.5,2.16667 113.5,0.833333 113.5,-0.5 Z"/></g>
<g><path style="opacity:0.819" fill="#2a2928" d="M 127.5,-0.5 C 129.5,-0.5 131.5,-0.5 133.5,-0.5C 135.747,12.618 136.747,12.618 136.5,-0.5C 138.167,-0.5 139.833,-0.5 141.5,-0.5C 141.5,9.83333 141.5,20.1667 141.5,30.5C 139.833,30.5 138.167,30.5 136.5,30.5C 136.48,24.9334 135.313,19.6 133,14.5C 132.501,19.8229 132.334,25.1563 132.5,30.5C 130.833,30.5 129.167,30.5 127.5,30.5C 127.5,20.1667 127.5,9.83333 127.5,-0.5 Z"/></g>
<g><path style="opacity:0.93" fill="#2b2a28" d="M 144.5,-0.5 C 148.167,-0.5 151.833,-0.5 155.5,-0.5C 155.5,0.833333 155.5,2.16667 155.5,3.5C 153.5,3.5 151.5,3.5 149.5,3.5C 149.5,6.16667 149.5,8.83333 149.5,11.5C 151.167,11.5 152.833,11.5 154.5,11.5C 154.5,13.1667 154.5,14.8333 154.5,16.5C 152.833,16.5 151.167,16.5 149.5,16.5C 149.5,19.5 149.5,22.5 149.5,25.5C 151.5,25.5 153.5,25.5 155.5,25.5C 155.5,27.1667 155.5,28.8333 155.5,30.5C 151.833,30.5 148.167,30.5 144.5,30.5C 144.5,20.1667 144.5,9.83333 144.5,-0.5 Z"/></g>
<g><path style="opacity:0.896" fill="#2a2a28" d="M 157.5,-0.5 C 161.5,-0.5 165.5,-0.5 169.5,-0.5C 171.114,5.99349 170.781,12.3268 168.5,18.5C 169.373,22.1982 170.373,25.8649 171.5,29.5C 169.833,30.8333 168.167,30.8333 166.5,29.5C 163.126,14.6821 161.792,15.0154 162.5,30.5C 160.833,30.5 159.167,30.5 157.5,30.5C 157.5,20.1667 157.5,9.83333 157.5,-0.5 Z M 162.5,3.5 C 163.496,3.41423 164.329,3.74756 165,4.5C 165.498,7.48162 165.665,10.4816 165.5,13.5C 164.5,13.5 163.5,13.5 162.5,13.5C 162.5,10.1667 162.5,6.83333 162.5,3.5 Z"/></g>
<g><path style="opacity:0.978" fill="#fe8300" d="M 64.5,107.5 C 60.5,107.167 56.5,106.833 52.5,106.5C 26.0515,98.2174 8.71814,80.7174 0.5,54C 20.5845,43.4165 41.5845,41.0831 63.5,47C 87.1302,55.0854 94.2969,70.5854 85,93.5C 84.3109,94.3567 83.4776,95.0233 82.5,95.5C 72.8763,93.9829 66.8763,97.9829 64.5,107.5 Z"/></g>
<g><path style="opacity:0.961" fill="#323e47" d="M 154.5,43.5 C 166.87,42.7002 172.036,48.3668 170,60.5C 164.541,69.356 157.541,70.6893 149,64.5C 144.205,55.5055 146.038,48.5055 154.5,43.5 Z"/></g>
<g><path style="opacity:0.955" fill="#323e48" d="M 242.5,47.5 C 249.019,45.8842 253.186,48.2175 255,54.5C 255.667,86.1667 255.667,117.833 255,149.5C 253.554,153.734 250.554,156.067 246,156.5C 240.57,155.401 237.57,152.068 237,146.5C 222.227,158.862 206.727,159.695 190.5,149C 176.289,135.064 172.456,118.564 179,99.5C 187.957,81.2717 202.457,74.1051 222.5,78C 228.041,79.685 232.874,82.5183 237,86.5C 237.333,75.5 237.667,64.5 238,53.5C 238.599,50.7458 240.099,48.7458 242.5,47.5 Z M 209.5,93.5 C 229.741,92.5756 238.908,102.242 237,122.5C 233.266,135.882 224.432,141.715 210.5,140C 197.175,135.199 191.675,125.699 194,111.5C 195.839,102.503 201.006,96.5031 209.5,93.5 Z"/></g>
<g><path style="opacity:0.955" fill="#323e47" d="M 157.5,76.5 C 162.241,76.7793 165.407,79.1127 167,83.5C 167.667,105.5 167.667,127.5 167,149.5C 164.412,155.811 159.912,157.644 153.5,155C 151.951,153.786 150.785,152.286 150,150.5C 149.333,128.167 149.333,105.833 150,83.5C 151.124,79.5379 153.624,77.2046 157.5,76.5 Z"/></g>
<g><path style="opacity:0.963" fill="#333e47" d="M 345.5,108.5 C 345.5,113.833 345.5,119.167 345.5,124.5C 339.435,148.368 324.102,158.535 299.5,155C 294.033,153.684 289.2,151.184 285,147.5C 284.667,157.833 284.333,168.167 284,178.5C 283.47,181.585 281.97,183.918 279.5,185.5C 276.833,185.5 274.167,185.5 271.5,185.5C 269.525,184.354 268.025,182.687 267,180.5C 266.014,147.081 266.348,113.748 268,80.5C 273.374,75.18 278.374,75.5133 283,81.5C 283.333,83.5 283.667,85.5 284,87.5C 295.528,76.755 308.695,74.255 323.5,80C 335.56,85.8886 342.893,95.3886 345.5,108.5 Z M 302.5,92.5 C 318.268,92.4329 326.934,100.266 328.5,116C 327.99,130.341 320.657,138.508 306.5,140.5C 288.965,137.446 281.799,127.113 285,109.5C 287.458,100.207 293.291,94.5401 302.5,92.5 Z"/></g>
<g><path style="opacity:0.983" fill="#50c21a" d="M 52.5,106.5 C 56.5,106.833 60.5,107.167 64.5,107.5C 65.0922,113.409 67.7588,118.076 72.5,121.5C 69.0326,126.769 66.366,132.436 64.5,138.5C 53.3425,151.748 39.0091,159.248 21.5,161C 14.1742,161.5 6.8409,161.666 -0.5,161.5C -0.5,159.833 -0.5,158.167 -0.5,156.5C 5.44949,127.554 23.1162,110.887 52.5,106.5 Z"/></g>
<g><path style="opacity:0.979" fill="#0086f7" d="M 134.5,185.5 C 128.833,185.5 123.167,185.5 117.5,185.5C 102.727,183.628 89.3938,178.128 77.5,169C 68.9082,160.65 64.5748,150.483 64.5,138.5C 66.366,132.436 69.0326,126.769 72.5,121.5C 76.5609,122.991 80.5609,122.824 84.5,121C 87.7221,118.597 90.7221,116.097 93.5,113.5C 111.935,115.429 124.435,125.095 131,142.5C 132.254,146.77 133.254,151.104 134,155.5C 134.5,165.494 134.666,175.494 134.5,185.5 Z"/></g>
</svg>
